<svg width="28" height="28" fill="none" xmlns="http://www.w3.org/2000/svg"><path d="M14.003 6.821A7.167 7.167 0 006.826 14a7.167 7.167 0 007.177 7.179A7.167 7.167 0 0021.18 14a7.167 7.167 0 00-7.177-7.179zm0 11.846A4.675 4.675 0 019.337 14a4.671 4.671 0 014.666-4.667A4.671 4.671 0 0118.67 14a4.675 4.675 0 01-4.666 4.667zm9.145-12.14c0 .931-.75 1.675-1.674 1.675a1.674 1.674 0 111.674-1.674zm4.754 1.7c-.107-2.243-.619-4.23-2.262-5.867C24.004.723 22.017.21 19.775.098c-2.311-.13-9.239-.13-11.55 0C5.99.205 4.002.717 2.36 2.354.717 3.99.21 5.978.098 8.22c-.13 2.311-.13 9.24 0 11.552.107 2.243.619 4.23 2.262 5.867 1.642 1.637 3.623 2.15 5.865 2.262 2.311.13 9.239.13 11.55 0 2.242-.107 4.229-.619 5.865-2.262 1.637-1.637 2.15-3.624 2.262-5.867.13-2.312.13-9.234 0-11.546zm-2.986 14.026a4.725 4.725 0 01-2.661 2.662c-1.843.731-6.215.562-8.252.562-2.036 0-6.415.163-8.252-.562a4.725 4.725 0 01-2.66-2.662C2.36 20.41 2.527 16.037 2.527 14s-.162-6.417.562-8.253a4.725 4.725 0 012.661-2.662c1.843-.731 6.216-.562 8.252-.562 2.037 0 6.415-.163 8.252.562a4.725 4.725 0 012.66 2.662c.732 1.843.563 6.216.563 8.253s.169 6.417-.562 8.253z" fill="#fff"/></svg>