<svg width="31" height="24" fill="none" xmlns="http://www.w3.org/2000/svg"><path d="M9.738 24c11.698 0 18.099-9.236 18.099-17.232 0-.26 0-.52-.013-.78 1.24-.85 2.32-1.925 3.176-3.142a13.4 13.4 0 01-3.66.957A6.157 6.157 0 0030.144.45 13.047 13.047 0 0126.1 1.913 6.501 6.501 0 0021.46 0c-3.51 0-6.363 2.717-6.363 6.06 0 .472.062.932.161 1.38-5.284-.247-9.973-2.668-13.112-6.33a5.837 5.837 0 00-.856 3.047c0 2.103 1.129 3.957 2.828 5.044a6.683 6.683 0 01-2.878-.756v.083c0 2.929 2.196 5.385 5.099 5.94a6.496 6.496 0 01-1.675.213c-.41 0-.806-.035-1.19-.106.806 2.41 3.163 4.157 5.941 4.204a13.17 13.17 0 01-7.902 2.599c-.508 0-1.017-.024-1.513-.083A18.763 18.763 0 009.738 24z" fill="#fff"/></svg>